<svg width="24" height="24" viewBox="0 0 24 24" fill="none" xmlns="http://www.w3.org/2000/svg">
<path d="M12 24C9.82812 24 7.82031 23.4648 5.97656 22.3945C4.13281 21.3242 2.67578 19.8672 1.60547 18.0234C0.535156 16.1797 0 14.1719 0 12C0 9.82812 0.535156 7.82031 1.60547 5.97656C2.67578 4.13281 4.13281 2.67578 5.97656 1.60547C7.82031 0.535156 9.82812 0 12 0C14.1719 0 16.1797 0.535156 18.0234 1.60547C19.8672 2.67578 21.3242 4.13281 22.3945 5.97656C23.4648 7.82031 24 9.82812 24 12C24 14.1719 23.4648 16.1797 22.3945 18.0234C21.3242 19.8672 19.8672 21.3242 18.0234 22.3945C16.1797 23.4648 14.1719 24 12 24ZM3.11719 10.5469C3.03906 11.0781 3 11.5625 3 12C3 14.2188 3.71484 16.1602 5.14453 17.8242C6.57422 19.4883 8.35938 20.5 10.5 20.8594V16.3594C9.1875 16.0938 8.10938 15.5586 7.26562 14.7539C6.42188 13.9492 6 13.0312 6 12C6 11.8438 6.01562 11.6797 6.04688 11.5078C4.82812 11.2734 3.85156 10.9531 3.11719 10.5469ZM12 3C10.3125 3 8.76172 3.43359 7.34766 4.30078C5.93359 5.16797 4.83594 6.32031 4.05469 7.75781C5.91406 8.58594 8.5625 9 12 9C15.4375 9 18.0859 8.58594 19.9453 7.75781C19.1641 6.32031 18.0664 5.16797 16.6523 4.30078C15.2383 3.43359 13.6875 3 12 3ZM17.9531 11.5078C17.9844 11.6797 18 11.8438 18 12C18 13.0312 17.5781 13.9531 16.7344 14.7656C15.8906 15.5781 14.8125 16.1094 13.5 16.3594V20.8594C15.6406 20.5 17.4258 19.4883 18.8555 17.8242C20.2852 16.1602 21 14.2188 21 12C21 11.5625 20.9609 11.0781 20.8828 10.5469C20.1641 10.9531 19.1875 11.2734 17.9531 11.5078Z" fill="#00112C"/>
</svg>
